# xmcd
#
# Track frame offsets:
# 150
# 14735
# 27527
# 40568
# 60635
# 73766
# 86232
# 99959
# 113846
# 130410
# 144706
# 159022
#
# Disc length: 2511 seconds
#
#
# Revision: 0
# Processed by: cddbd v1.5.2PL0 Copyright (c) Steve Scherf et al.
# Submitted via: FreeRIP 2.96 
#
DISCID=a209cd0c
DTITLE=Feathers, Robert - Old Home Place
DYEAR=1900
DGENRE=Bluegrass
TTITLE0=Cherokee Shuffle
TTITLE1=Sunny Side of the Mountain
TTITLE2=There Ain't Nobody Gonna Miss Me When I'm Gone
TTITLE3=Nonie's Breakdown
TTITLE4=Prisoner Song
TTITLE5=Old Home Place
TTITLE6=Clinch Mountain Back Step
TTITLE7=Blue Ridge Cabin Home
TTITLE8=Nine Pound Hammer
TTITLE9=Blackberry Blossom
TTITLE10=Will The Circle Be Unbroken
TTITLE11=Orange Blossom Special
EXTD=
EXTT0=
EXTT1=
EXTT2=
EXTT3=
EXTT4=
EXTT5=
EXTT6=
EXTT7=
EXTT8=
EXTT9=
EXTT10=
EXTT11=
PLAYORDER=
